<svg id="visual" viewBox="0 0 900 600" width="900" height="600" xmlns="http://www.w3.org/2000/svg" xmlns:xlink="http://www.w3.org/1999/xlink" version="1.1"><rect x="0" y="0" width="900" height="600" fill="#002233"></rect><path d="M0 467L10.7 423.2C21.3 379.3 42.7 291.7 64.2 262.8C85.7 234 107.3 264 128.8 294.5C150.3 325 171.7 356 193 342.2C214.3 328.3 235.7 269.7 257 236.3C278.3 203 299.7 195 321.2 195.8C342.7 196.7 364.3 206.3 385.8 250.2C407.3 294 428.7 372 450 374.2C471.3 376.3 492.7 302.7 514.2 257.7C535.7 212.7 557.3 196.3 578.8 248.2C600.3 300 621.7 420 643 445C664.3 470 685.7 400 707 368.2C728.3 336.3 749.7 342.7 771.2 346.8C792.7 351 814.3 353 835.8 373.3C857.3 393.7 878.7 432.3 889.3 451.7L900 471L900 601L889.3 601C878.7 601 857.3 601 835.8 601C814.3 601 792.7 601 771.2 601C749.7 601 728.3 601 707 601C685.7 601 664.3 601 643 601C621.7 601 600.3 601 578.8 601C557.3 601 535.7 601 514.2 601C492.7 601 471.3 601 450 601C428.7 601 407.3 601 385.8 601C364.3 601 342.7 601 321.2 601C299.7 601 278.3 601 257 601C235.7 601 214.3 601 193 601C171.7 601 150.3 601 128.8 601C107.3 601 85.7 601 64.2 601C42.7 601 21.3 601 10.7 601L0 601Z" fill="#0066FF" stroke-linecap="round" stroke-linejoin="miter"></path></svg>